<mxfile host="65bd71144e">
    <diagram id="dqZssCKXNbCzxsxmnJFw" name="Page-1">
        <mxGraphModel dx="934" dy="758" grid="1" gridSize="10" guides="1" tooltips="1" connect="1" arrows="1" fold="1" page="1" pageScale="1" pageWidth="827" pageHeight="1169" math="0" shadow="0">
            <root>
                <mxCell id="0"/>
                <mxCell id="1" parent="0"/>
                <mxCell id="2" value="" style="rounded=0;whiteSpace=wrap;html=1;sketch=1;fillColor=none;strokeColor=#006658;fontColor=#5C5C5C;" vertex="1" parent="1">
                    <mxGeometry x="281" y="61" width="480" height="230" as="geometry"/>
                </mxCell>
                <mxCell id="3" value="" style="group;sketch=1;" vertex="1" connectable="0" parent="1">
                    <mxGeometry x="281" y="61" width="480" height="30" as="geometry"/>
                </mxCell>
                <mxCell id="4" value="pd_lsn" style="rounded=0;whiteSpace=wrap;html=1;fillColor=#dae8fc;strokeColor=#6c8ebf;sketch=1;" vertex="1" parent="3">
                    <mxGeometry width="240" height="30" as="geometry"/>
                </mxCell>
                <mxCell id="5" value="pg_flags" style="rounded=0;whiteSpace=wrap;html=1;fillColor=#dae8fc;strokeColor=#6c8ebf;sketch=1;" vertex="1" parent="3">
                    <mxGeometry x="300" width="60" height="30" as="geometry"/>
                </mxCell>
                <mxCell id="6" value="pg_checksum" style="rounded=0;whiteSpace=wrap;html=1;fillColor=#dae8fc;strokeColor=#6c8ebf;sketch=1;" vertex="1" parent="3">
                    <mxGeometry x="240" width="60" height="30" as="geometry"/>
                </mxCell>
                <mxCell id="7" value="pg_lower" style="rounded=0;whiteSpace=wrap;html=1;fillColor=#dae8fc;strokeColor=#6c8ebf;sketch=1;" vertex="1" parent="3">
                    <mxGeometry x="360" width="60" height="30" as="geometry"/>
                </mxCell>
                <mxCell id="8" value="pg_upper" style="rounded=0;whiteSpace=wrap;html=1;fillColor=#dae8fc;strokeColor=#6c8ebf;sketch=1;" vertex="1" parent="3">
                    <mxGeometry x="420" width="60" height="30" as="geometry"/>
                </mxCell>
                <mxCell id="9" value="" style="group;sketch=1;" vertex="1" connectable="0" parent="1">
                    <mxGeometry x="281" y="91" width="480" height="30" as="geometry"/>
                </mxCell>
                <mxCell id="10" value="pg_spec" style="rounded=0;whiteSpace=wrap;html=1;fillColor=#dae8fc;strokeColor=#6c8ebf;sketch=1;" vertex="1" parent="9">
                    <mxGeometry width="60" height="30" as="geometry"/>
                </mxCell>
                <mxCell id="11" value="pg_page_v" style="rounded=0;whiteSpace=wrap;html=1;fillColor=#dae8fc;strokeColor=#6c8ebf;sketch=1;" vertex="1" parent="9">
                    <mxGeometry x="60" width="60" height="30" as="geometry"/>
                </mxCell>
                <mxCell id="12" value="pg_prune_i" style="rounded=0;whiteSpace=wrap;html=1;fillColor=#dae8fc;strokeColor=#6c8ebf;sketch=1;" vertex="1" parent="9">
                    <mxGeometry x="120" width="60" height="30" as="geometry"/>
                </mxCell>
                <mxCell id="13" value="pg_prune_i" style="rounded=0;whiteSpace=wrap;html=1;fillColor=#dae8fc;strokeColor=#6c8ebf;sketch=1;" vertex="1" parent="9">
                    <mxGeometry x="180" width="60" height="30" as="geometry"/>
                </mxCell>
                <mxCell id="14" value="pg_linp 0" style="rounded=0;whiteSpace=wrap;html=1;fillColor=#dae8fc;strokeColor=#6c8ebf;sketch=1;" vertex="1" parent="9">
                    <mxGeometry x="240" width="120" height="30" as="geometry"/>
                </mxCell>
                <mxCell id="15" value="pg_linp 1" style="rounded=0;whiteSpace=wrap;html=1;fillColor=#dae8fc;strokeColor=#6c8ebf;sketch=1;" vertex="1" parent="9">
                    <mxGeometry x="360" width="120" height="30" as="geometry"/>
                </mxCell>
                <mxCell id="16" value="spec" style="rounded=0;whiteSpace=wrap;html=1;fillColor=#dae8fc;strokeColor=#6c8ebf;sketch=1;" vertex="1" parent="1">
                    <mxGeometry x="731" y="261" width="30" height="30" as="geometry"/>
                </mxCell>
                <mxCell id="17" value="tuple1" style="rounded=0;whiteSpace=wrap;html=1;fillColor=#dae8fc;strokeColor=#6c8ebf;sketch=1;" vertex="1" parent="1">
                    <mxGeometry x="551" y="261" width="180" height="30" as="geometry"/>
                </mxCell>
                <mxCell id="18" value="tuple2" style="rounded=0;whiteSpace=wrap;html=1;fillColor=#dae8fc;strokeColor=#6c8ebf;sketch=1;" vertex="1" parent="1">
                    <mxGeometry x="371" y="261" width="180" height="30" as="geometry"/>
                </mxCell>
                <mxCell id="20" style="edgeStyle=orthogonalEdgeStyle;curved=0;rounded=1;sketch=1;orthogonalLoop=1;jettySize=auto;html=1;entryX=0;entryY=0;entryDx=0;entryDy=0;fontColor=#5C5C5C;strokeColor=#006658;fillColor=#21C0A5;" edge="1" parent="1" source="14" target="17">
                    <mxGeometry relative="1" as="geometry"/>
                </mxCell>
                <mxCell id="21" style="edgeStyle=orthogonalEdgeStyle;curved=0;rounded=1;sketch=1;orthogonalLoop=1;jettySize=auto;html=1;entryX=0;entryY=0;entryDx=0;entryDy=0;fontColor=#5C5C5C;strokeColor=#006658;fillColor=#21C0A5;" edge="1" parent="1" source="15" target="18">
                    <mxGeometry relative="1" as="geometry">
                        <Array as="points">
                            <mxPoint x="701" y="161"/>
                            <mxPoint x="371" y="161"/>
                        </Array>
                    </mxGeometry>
                </mxCell>
                <mxCell id="22" value="" style="shape=curlyBracket;whiteSpace=wrap;html=1;rounded=1;flipH=1;sketch=1;strokeColor=#6c8ebf;fillColor=#dae8fc;rotation=-90;" vertex="1" parent="1">
                    <mxGeometry x="511" y="-193" width="20" height="480" as="geometry"/>
                </mxCell>
                <mxCell id="23" value="&lt;a style=&quot;border: 0px solid rgb(204, 204, 204); cursor: pointer; color: rgb(79, 130, 180); -webkit-tap-highlight-color: rgb(21, 98, 142); font-family: &amp;quot;Bookman Old Style&amp;quot;, &amp;quot;Times New Roman&amp;quot;, Times, serif; text-align: left; background-color: rgb(255, 255, 255);&quot; id=&quot;category_PageHeaderData&quot;&gt;&lt;font style=&quot;font-size: 11px;&quot;&gt;PageHeaderData&lt;/font&gt;&lt;/a&gt;" style="text;html=1;align=center;verticalAlign=middle;resizable=0;points=[];autosize=1;strokeColor=none;fillColor=none;fontColor=#5C5C5C;sketch=1;" vertex="1" parent="1">
                    <mxGeometry x="471" y="18" width="100" height="30" as="geometry"/>
                </mxCell>
                <mxCell id="24" value="" style="shape=curlyBracket;whiteSpace=wrap;html=1;rounded=1;flipH=1;sketch=1;strokeColor=#6c8ebf;fillColor=#dae8fc;rotation=90;" vertex="1" parent="1">
                    <mxGeometry x="511" y="95" width="20" height="420" as="geometry"/>
                </mxCell>
                <mxCell id="25" value="" style="shape=curlyBracket;whiteSpace=wrap;html=1;rounded=1;flipH=1;sketch=1;strokeColor=#6c8ebf;fillColor=#dae8fc;rotation=0;" vertex="1" parent="1">
                    <mxGeometry x="765" y="121" width="20" height="140" as="geometry"/>
                </mxCell>
                <mxCell id="26" value="&lt;div style=&quot;text-align: left;&quot;&gt;&lt;font face=&quot;Bookman Old Style, Times New Roman, Times, serif&quot; color=&quot;#4f82b4&quot;&gt;&lt;span style=&quot;font-size: 11px; background-color: rgb(255, 255, 255);&quot;&gt;FreeSpace&lt;/span&gt;&lt;/font&gt;&lt;/div&gt;" style="text;html=1;align=center;verticalAlign=middle;resizable=0;points=[];autosize=1;strokeColor=none;fillColor=none;fontColor=#5C5C5C;sketch=1;horizontal=0;" vertex="1" parent="1">
                    <mxGeometry x="751" y="176" width="70" height="30" as="geometry"/>
                </mxCell>
                <mxCell id="27" value="" style="endArrow=classic;html=1;rounded=1;sketch=1;fontSize=11;fontColor=#5C5C5C;strokeColor=#006658;fillColor=#21C0A5;curved=0;entryX=1;entryY=0.5;entryDx=0;entryDy=0;" edge="1" parent="1" source="7" target="15">
                    <mxGeometry width="50" height="50" relative="1" as="geometry">
                        <mxPoint x="380" y="440" as="sourcePoint"/>
                        <mxPoint x="430" y="390" as="targetPoint"/>
                        <Array as="points">
                            <mxPoint x="740" y="20"/>
                        </Array>
                    </mxGeometry>
                </mxCell>
                <mxCell id="28" value="" style="endArrow=classic;html=1;rounded=1;sketch=1;fontSize=11;fontColor=#5C5C5C;strokeColor=#006658;fillColor=#21C0A5;curved=0;exitX=1;exitY=0.5;exitDx=0;exitDy=0;" edge="1" parent="1" source="8">
                    <mxGeometry width="50" height="50" relative="1" as="geometry">
                        <mxPoint x="390" y="310" as="sourcePoint"/>
                        <mxPoint x="370" y="261" as="targetPoint"/>
                        <Array as="points">
                            <mxPoint x="800" y="150"/>
                        </Array>
                    </mxGeometry>
                </mxCell>
            </root>
        </mxGraphModel>
    </diagram>
</mxfile>